<svg data-testid="apiErrorIcon" xmlns="http://www.w3.org/2000/svg" width="347" height="256.744" viewBox="0 0 347 256.744">
  <g id="Group_4395" data-name="Group 4395" transform="translate(-787 -229.256)">
    <g id="teacher_4_" data-name="teacher (4)" transform="translate(880.257 229.256)">
      <g id="Group_4393" data-name="Group 4393" transform="translate(0.002 0)">
        <path id="Path_4072" data-name="Path 4072" d="M143.26,289.931a21.358,21.358,0,0,0-15.2,6.3,4.951,4.951,0,0,0,7,7,11.6,11.6,0,0,1,16.4,0,4.951,4.951,0,0,0,7-7,21.352,21.352,0,0,0-15.2-6.3Z" transform="translate(-63.928 -146.391)" fill="rgba(104,116,125,0.3)"/>
        <path id="Path_4073" data-name="Path 4073" d="M199.025,0a54.545,54.545,0,0,0-53.7,45.4,59.584,59.584,0,0,0-4.3-4.744,58.052,58.052,0,0,0-40.411-16.93,68.433,68.433,0,0,0-97.848,78.7A16.49,16.49,0,0,0,6.38,123.829c1.026,11.889-1.294,23.478-3.36,33.765C1.036,167.477-.837,176.812.4,185.184c1.221,8.269,5.376,14.718,12.628,19.6a79.044,79.044,0,0,0-12.7,42.82v.926a4.951,4.951,0,0,0,4.951,4.951H153.4a4.951,4.951,0,0,0,4.951-4.951v-.926a79.05,79.05,0,0,0-12.7-42.821c7.283-4.905,11.443-11.389,12.644-19.714,1.2-8.343-.662-17.637-2.638-27.478-2.065-10.287-4.385-21.876-3.36-33.766a16.487,16.487,0,0,0,5.246-17.876,8.705,8.705,0,0,0,1.049-.22l13.878-3.722A54.462,54.462,0,1,0,199.025,0ZM115.5,188.716l.83,24.769-10.12,4.439a4.951,4.951,0,0,0-1.187,8.333l10.955,9.156-9.8,8.169H94.864l13.954-58.474a69.142,69.142,0,0,1,6.686,3.609ZM73.986,243.582l-8.5-35.614h27.7l-8.5,35.614Zm-21.5,0-9.8-8.169,10.955-9.156a4.951,4.951,0,0,0-1.187-8.333l-10.12-4.439.83-24.771a69.137,69.137,0,0,1,6.686-3.608l13.954,58.475ZM96.749,180.74q1.386.362,2.746.778l-3.949,16.549H63.124l-3.949-16.55q1.344-.41,2.714-.769a64.363,64.363,0,0,0,17.374,2.381c1.111,0,2.228-.029,3.345-.086a64.918,64.918,0,0,0,14.142-2.3ZM82.1,173.153a55.551,55.551,0,0,1-57.826-50.9,4.951,4.951,0,0,0-4.936-4.571H16.846a6.621,6.621,0,1,1,0-13.243h.925l16.571,11.649v3.3a16.31,16.31,0,0,0,16.291,16.291H61.051A16.312,16.312,0,0,0,77.214,121.4h4.243a16.312,16.312,0,0,0,16.163,14.278h10.415a16.31,16.31,0,0,0,16.291-16.291v-3.3L140.9,104.435h.928a6.621,6.621,0,1,1,0,13.243h-2.492a4.951,4.951,0,0,0-4.936,4.571,55.379,55.379,0,0,1-52.295,50.9ZM126.826,68.308h19.525q.39,1.487.866,2.949a49,49,0,0,1,1.229,10.936,48.5,48.5,0,0,1-1.788,13.063,16.468,16.468,0,0,0-4.834-.723q-1.24,0-2.48,0h-.011a4.311,4.311,0,0,1-4.307-4.306,4.951,4.951,0,0,0-4.951-4.95h-4.45a22.846,22.846,0,0,1-22.82-22.75l.2-4.531a32.633,32.633,0,0,0,23.819,10.313ZM97.851,79.744a32.733,32.733,0,0,0,27.773,15.433h.39a14.253,14.253,0,0,0,3.412,5.219l-8.168,5.742a10.384,10.384,0,0,0-7.348-3.041H91.743a10.431,10.431,0,0,0-10.217,8.4H77.143a10.431,10.431,0,0,0-10.217-8.4H44.76a10.384,10.384,0,0,0-7.348,3.041L29.245,100.4a14.247,14.247,0,0,0,3.412-5.22H70.078A32.732,32.732,0,0,0,97.851,79.744Zm16.573,33.768v5.876a6.4,6.4,0,0,1-6.39,6.39H97.619a6.4,6.4,0,0,1-6.39-6.39v-5.876a.535.535,0,0,1,.515-.514h22.165a.528.528,0,0,1,.514.514Zm-46.983,0v5.876a6.4,6.4,0,0,1-6.39,6.39H50.636a6.4,6.4,0,0,1-6.39-6.39v-5.876a.528.528,0,0,1,.514-.514H66.926A.535.535,0,0,1,67.441,113.512Zm74.807-55.105H126.826a22.848,22.848,0,0,1-22.82-22.752l.083-1.856a48.207,48.207,0,0,1,29.97,13.886A48.8,48.8,0,0,1,142.248,58.407ZM68.728,25.745a58.62,58.62,0,0,1,25.546,5.869l-.269,6.026A22.85,22.85,0,0,1,71.281,58.407H55.955a4.951,4.951,0,1,0,0,9.9H71.281A32.591,32.591,0,0,0,93,60.034l-.1,2.2c0,.038,0,.075,0,.113s-.005.072-.005.108A22.848,22.848,0,0,1,70.079,85.275H28.6a4.951,4.951,0,0,0-4.951,4.951,4.312,4.312,0,0,1-4.309,4.307h-2.49a16.445,16.445,0,0,0-5.539.958A58.54,58.54,0,0,1,68.728,25.745Zm-56,133.8c1.533-7.636,3.193-15.948,3.673-24.777a64.871,64.871,0,0,0,20.02,32.118,66.173,66.173,0,0,0,11.672,8.207,80.012,80.012,0,0,0-29.169,21.733c-11.514-7.49-9.994-18.364-6.2-37.28ZM33,196.3l-.677,20.2a4.951,4.951,0,0,0,2.96,4.7l5.876,2.577-9.376,7.837a4.951,4.951,0,0,0,.005,7.6l5.232,4.36H10.34A68.864,68.864,0,0,1,33,196.3Zm88.644,47.28,5.232-4.36a4.951,4.951,0,0,0,.005-7.6l-9.376-7.837,5.876-2.577a4.951,4.951,0,0,0,2.96-4.7l-.677-20.2a68.864,68.864,0,0,1,22.664,47.277Zm18.1-46.758a80.023,80.023,0,0,0-29.167-21.733,65.432,65.432,0,0,0,31.688-40.344c.478,8.837,2.14,17.155,3.674,24.8C149.744,178.484,151.263,189.334,139.746,196.824Zm59.278-97.807a44.455,44.455,0,0,1-23.258-6.546,4.948,4.948,0,0,0-3.871-.561l-14.107,3.783q1.891-7.057,3.784-14.107a4.949,4.949,0,0,0-.561-3.872,44.259,44.259,0,0,1-4.254-9.148q-.515-2.171-1.194-4.29a44.557,44.557,0,1,1,43.462,34.741Z" transform="translate(-0.003 0)" fill="rgba(104,116,125,0.3)"/>
        <path id="Path_4074" data-name="Path 4074" d="M62.97,127.875a4.951,4.951,0,1,0,0-9.9h0a4.951,4.951,0,0,0,0,9.9Z" transform="translate(-29.295 -59.566)" fill="rgba(104,116,125,0.3)"/>
        <path id="Path_4075" data-name="Path 4075" d="M394.987,81.978l2.123-2.123a14.852,14.852,0,0,0-21-21l-2.123,2.123-2.123-2.123a14.852,14.852,0,1,0-21,21l2.123,2.123L350.857,84.1a14.852,14.852,0,0,0,21,21l2.123-2.123,2.123,2.123a14.852,14.852,0,1,0,21-21Zm-10.5,3.5,5.624,5.624a4.95,4.95,0,0,1-7,7l-5.624-5.624a4.952,4.952,0,0,0-7,0L364.859,98.1a4.949,4.949,0,1,1-7-7l5.624-5.624a4.952,4.952,0,0,0,0-7l-5.624-5.624a4.95,4.95,0,1,1,7-7l5.624,5.624a4.951,4.951,0,0,0,7,0l5.624-5.624a4.949,4.949,0,0,1,7,7l-5.624,5.624a4.951,4.951,0,0,0,0,7Z" transform="translate(-174.961 -27.519)" fill="rgba(104,116,125,0.3)"/>
      </g>
    </g>
    <rect id="Rectangle_2222" data-name="Rectangle 2222" width="347" height="205" transform="translate(787 281)" fill="rgba(255,255,255,0)"/>
  </g>
</svg>
