<svg id="appointment" xmlns="http://www.w3.org/2000/svg" width="41" height="41" viewBox="0 0 41 41">
  <path id="Path_3878" data-name="Path 3878" d="M63.4,1.2a1.2,1.2,0,0,0-2.4,0V2.563h2.4Z" transform="translate(-56.115)" fill="rgba(168,173,192,0.4)"/>
  <path id="Path_3879" data-name="Path 3879" d="M153.4,1.2a1.2,1.2,0,0,0-2.4,0V2.563h2.4Z" transform="translate(-138.908)" fill="rgba(168,173,192,0.4)"/>
  <path id="Path_3880" data-name="Path 3880" d="M243.4,1.2a1.2,1.2,0,0,0-2.4,0V2.563h2.4Z" transform="translate(-221.701)" fill="rgba(168,173,192,0.4)"/>
  <path id="Path_3881" data-name="Path 3881" d="M333.4,1.2a1.2,1.2,0,0,0-2.4,0V2.563h2.4Z" transform="translate(-304.494)" fill="rgba(168,173,192,0.4)"/>
  <path id="Path_3882" data-name="Path 3882" d="M423.4,1.2a1.2,1.2,0,0,0-2.4,0V2.563h2.4Z" transform="translate(-387.287)" fill="rgba(168,173,192,0.4)"/>
  <path id="Path_3883" data-name="Path 3883" d="M361,381h2.4v2.4H361Z" transform="translate(-332.092 -350.49)" fill="rgba(168,173,192,0.4)"/>
  <path id="Path_3884" data-name="Path 3884" d="M241,381h2.4v2.4H241Z" transform="translate(-221.701 -350.49)" fill="rgba(168,173,192,0.4)"/>
  <path id="Path_3885" data-name="Path 3885" d="M121,262h2.4v2.4H121Z" transform="translate(-111.311 -241.02)" fill="rgba(168,173,192,0.4)"/>
  <path id="Path_3886" data-name="Path 3886" d="M39.8,32H36.115v3.6a1.2,1.2,0,0,1-2.4,0V32h-4.8v3.6a1.2,1.2,0,0,1-2.4,0V32H21.7v3.6a1.2,1.2,0,0,1-2.4,0V32h-4.8v3.6a1.2,1.2,0,0,1-2.4,0V32h-4.8v3.6a1.2,1.2,0,1,1-2.4,0V32H1.2A1.2,1.2,0,0,0,0,33.2v7.607H41V33.2A1.2,1.2,0,0,0,39.8,32Z" transform="translate(0 -29.438)" fill="rgba(168,173,192,0.4)"/>
  <path id="Path_3887" data-name="Path 3887" d="M241,262h2.4v2.4H241Z" transform="translate(-221.701 -241.02)" fill="rgba(168,173,192,0.4)"/>
  <path id="Path_3888" data-name="Path 3888" d="M361,262h2.4v2.4H361Z" transform="translate(-332.092 -241.02)" fill="rgba(168,173,192,0.4)"/>
  <path id="Path_3889" data-name="Path 3889" d="M0,198.025a1.2,1.2,0,0,0,1.2,1.2H39.8a1.2,1.2,0,0,0,1.2-1.2V172H0Zm26.506-20.02a1.2,1.2,0,0,1,1.2-1.2h4.8a1.2,1.2,0,0,1,1.2,1.2v4.8a1.2,1.2,0,0,1-1.2,1.2h-4.8a1.2,1.2,0,0,1-1.2-1.2Zm0,9.529a1.2,1.2,0,0,1,1.2-1.2h4.8a1.2,1.2,0,0,1,1.2,1.2v4.8a1.2,1.2,0,0,1-1.2,1.2h-4.8a1.2,1.2,0,0,1-1.2-1.2ZM16.9,178.006a1.2,1.2,0,0,1,1.2-1.2h4.8a1.2,1.2,0,0,1,1.2,1.2v4.8a1.2,1.2,0,0,1-1.2,1.2H18.1a1.2,1.2,0,0,1-1.2-1.2Zm0,9.529a1.2,1.2,0,0,1,1.2-1.2h4.8a1.2,1.2,0,0,1,1.2,1.2v4.8a1.2,1.2,0,0,1-1.2,1.2H18.1a1.2,1.2,0,0,1-1.2-1.2Zm-9.609-9.529a1.2,1.2,0,0,1,1.2-1.2h4.8a1.2,1.2,0,0,1,1.2,1.2v4.8a1.2,1.2,0,0,1-1.2,1.2h-4.8a1.2,1.2,0,0,1-1.2-1.2Zm.272,12.259a1.2,1.2,0,0,1,1.69-.167l.669.548,2.442-3a1.2,1.2,0,0,1,1.864,1.516l-3.2,3.94a1.2,1.2,0,0,1-1.694.171l-1.6-1.313a1.2,1.2,0,0,1-.167-1.69Z" transform="translate(0 -158.227)" fill="rgba(168,173,192,0.4)"/>
</svg>
