<svg xmlns="http://www.w3.org/2000/svg" xmlns:xlink="http://www.w3.org/1999/xlink" width="26" height="26" viewBox="0 0 26 26">
  <defs>
    <clipPath id="clip-path">
      <circle id="Ellipse_94" data-name="Ellipse 94" cx="11" cy="11" r="11" transform="translate(1.282 1.283)" fill="#fff"/>
    </clipPath>
  </defs>
  <g id="Group_4323" data-name="Group 4323" transform="translate(-240 -218)">
    <circle id="Ellipse_93" data-name="Ellipse 93" cx="13" cy="13" r="13" transform="translate(240 218)" fill="#68747d"/>
    <g id="Mask_Group_6" data-name="Mask Group 6" transform="translate(240.718 218.717)" clip-path="url(#clip-path)">
      <g id="user_7_" data-name="user (7)" transform="translate(3.418 6.078)">
        <g id="Group_4280" data-name="Group 4280" transform="translate(0 9.297)">
          <g id="Group_4279" data-name="Group 4279" transform="translate(0)">
            <path id="Path_3935" data-name="Path 3935" d="M20.192,257.323a8.874,8.874,0,0,0-8.864,8.864.386.386,0,0,0,.385.385H28.67a.386.386,0,0,0,.385-.385A8.874,8.874,0,0,0,20.192,257.323Z" transform="translate(-11.328 -257.323)" fill="#fff"/>
          </g>
        </g>
        <g id="Group_4282" data-name="Group 4282" transform="translate(4.624 0)">
          <g id="Group_4281" data-name="Group 4281" transform="translate(0 0)">
            <circle id="Ellipse_32" data-name="Ellipse 32" cx="4.239" cy="4.239" r="4.239" fill="#fff"/>
          </g>
        </g>
      </g>
    </g>
  </g>
</svg>
