<svg id="calendar_6_" data-name="calendar (6)" xmlns="http://www.w3.org/2000/svg" width="20" height="20" viewBox="0 0 20 20">
  <path id="Path_4094" data-name="Path 4094" d="M64.5,237.335h1.667a.5.5,0,0,0,.5-.5v-1.667a.5.5,0,0,0-.5-.5H64.5a.5.5,0,0,0-.5.5v1.667A.5.5,0,0,0,64.5,237.335Zm0,0" transform="translate(-60 -224.668)" fill="#68747d"/>
  <path id="Path_4095" data-name="Path 4095" d="M64.5,365.335h1.667a.5.5,0,0,0,.5-.5v-1.667a.5.5,0,0,0-.5-.5H64.5a.5.5,0,0,0-.5.5v1.667A.5.5,0,0,0,64.5,365.335Zm0,0" transform="translate(-60 -348.668)" fill="#68747d"/>
  <path id="Path_4096" data-name="Path 4096" d="M213.832,237.335H215.5a.5.5,0,0,0,.5-.5v-1.667a.5.5,0,0,0-.5-.5h-1.667a.5.5,0,0,0-.5.5v1.667A.5.5,0,0,0,213.832,237.335Zm0,0" transform="translate(-204.666 -224.668)" fill="#68747d"/>
  <path id="Path_4097" data-name="Path 4097" d="M213.832,365.335H215.5a.5.5,0,0,0,.5-.5v-1.667a.5.5,0,0,0-.5-.5h-1.667a.5.5,0,0,0-.5.5v1.667A.5.5,0,0,0,213.832,365.335Zm0,0" transform="translate(-204.666 -348.668)" fill="#68747d"/>
  <path id="Path_4100" data-name="Path 4100" d="M213.832,365.335H215.5a.5.5,0,0,0,.5-.5v-1.667a.5.5,0,0,0-.5-.5h-1.667a.5.5,0,0,0-.5.5v1.667A.5.5,0,0,0,213.832,365.335Zm0,0" transform="translate(-199.999 -348.668)" fill="#68747d"/>
  <path id="Path_4098" data-name="Path 4098" d="M363.168,237.335h1.667a.5.5,0,0,0,.5-.5v-1.667a.5.5,0,0,0-.5-.5h-1.667a.5.5,0,0,0-.5.5v1.667A.5.5,0,0,0,363.168,237.335Zm0,0" transform="translate(-349.334 -224.668)" fill="#68747d"/>
  <path id="Path_4099" data-name="Path 4099" d="M17.5,2.5h-.833V.833A.834.834,0,0,0,15.833,0H15a.834.834,0,0,0-.833.833V2.5H5.833V.833A.834.834,0,0,0,5,0H4.167a.834.834,0,0,0-.833.833V2.5H2.5A2.5,2.5,0,0,0,0,5V17.5A2.5,2.5,0,0,0,2.5,20h15A2.5,2.5,0,0,0,20,17.5V5A2.5,2.5,0,0,0,17.5,2.5Zm.833,15a.835.835,0,0,1-.833.833H2.5a.835.835,0,0,1-.833-.833V8.367H18.333Zm0,0" fill="#68747d"/>
</svg>
