<svg data-testid="success-icon" xmlns="http://www.w3.org/2000/svg" width="225.04" height="225.04" viewBox="0 0 225.04 225.04">
  <g id="Group_4404" data-name="Group 4404" transform="translate(-173.701 -297.131)" fill="currentColor">
    <path id="Path_4101" data-name="Path 4101"
      d="M286.229,297.131h-.008a112.516,112.516,0,1,0,.008,0Zm-.008,211.39a98.87,98.87,0,1,1,98.87-98.87A98.981,98.981,0,0,1,286.221,508.521Z"
      transform="translate(0)" />
    <path id="Path_4102" data-name="Path 4102"
      d="M335.7,364.593h0a22.3,22.3,0,0,0-15.952,6.65l-41.345,41.343-12.745-12.745A22.457,22.457,0,1,0,233.9,431.6l28.628,28.624a22.448,22.448,0,0,0,31.766-.008l57.242-57.242.036-.036.036-.037.09-.091a22.457,22.457,0,0,0-16-38.217Zm6.271,28.64-.089.088h0l-57.249,57.25a8.8,8.8,0,0,1-12.444.01l-.01-.01-28.628-28.624a8.807,8.807,0,0,1,12.454-12.455l22.4,22.4,51.025-51.023a8.807,8.807,0,0,1,12.543,12.366Z"
      transform="translate(-4.825 -6.069)" />
  </g>
</svg>