<svg xmlns="http://www.w3.org/2000/svg" width="25.15" height="17.291" viewBox="0 0 25.15 17.291">
  <g id="email_4_" data-name="email (4)" transform="translate(0 -80)">
    <g id="Group_4325" data-name="Group 4325" transform="translate(16.671 83.188)">
      <g id="Group_4324" data-name="Group 4324">
        <path id="Path_3951" data-name="Path 3951" d="M339.392,150.482l8.479,5.36V144.9Z" transform="translate(-339.392 -144.896)" fill="#68747d"/>
      </g>
    </g>
    <g id="Group_4327" data-name="Group 4327" transform="translate(0 83.188)">
      <g id="Group_4326" data-name="Group 4326">
        <path id="Path_3952" data-name="Path 3952" d="M0,144.9v10.947l8.479-5.36Z" transform="translate(0 -144.896)" fill="#68747d"/>
      </g>
    </g>
    <g id="Group_4329" data-name="Group 4329" transform="translate(0.047 80)">
      <g id="Group_4328" data-name="Group 4328" transform="translate(0 0)">
        <path id="Path_3953" data-name="Path 3953" d="M24.491,80H2.485A1.552,1.552,0,0,0,.96,81.338l12.528,8.254,12.528-8.254A1.552,1.552,0,0,0,24.491,80Z" transform="translate(-0.96 -80)" fill="#68747d"/>
      </g>
    </g>
    <g id="Group_4331" data-name="Group 4331" transform="translate(0.05 89.722)">
      <g id="Group_4330" data-name="Group 4330" transform="translate(0 0)">
        <path id="Path_3954" data-name="Path 3954" d="M16.205,277.922l-2.224,1.465a.789.789,0,0,1-.865,0l-2.224-1.467-9.868,6.242a1.55,1.55,0,0,0,1.522,1.327H24.552a1.55,1.55,0,0,0,1.522-1.327Z" transform="translate(-1.024 -277.92)" fill="#68747d"/>
      </g>
    </g>
  </g>
</svg>
