<svg xmlns="http://www.w3.org/2000/svg" width="30" height="20" viewBox="0 0 30 20">
  <g id="united-kingdom_2_" data-name="united-kingdom (2)" transform="translate(0 -85.33)">
    <rect id="Rectangle_2024" data-name="Rectangle 2024" width="29.999" height="20" transform="translate(0 85.33)" fill="#f0f0f0"/>
    <path id="Path_3962" data-name="Path 3962" d="M16.875,85.33h-3.75v8.125H0V97.2H13.125v8.125h3.75V97.2H30v-3.75H16.875Z" fill="#d80027"/>
    <g id="Group_4337" data-name="Group 4337" transform="translate(18.041 98.686)">
      <path id="Path_3963" data-name="Path 3963" d="M393.785,315.358l7.056,3.92v-3.92Z" transform="translate(-388.883 -315.358)" fill="#0052b4"/>
      <path id="Path_3964" data-name="Path 3964" d="M311.652,315.358,323.611,322v-1.879l-8.577-4.765Z" transform="translate(-311.652 -315.358)" fill="#0052b4"/>
      <path id="Path_3965" data-name="Path 3965" d="M320.425,349.872,311.652,345v4.875Z" transform="translate(-311.652 -343.229)" fill="#0052b4"/>
    </g>
    <path id="Path_3966" data-name="Path 3966" d="M311.652,315.358,323.611,322v-1.879l-8.577-4.765Z" transform="translate(-293.611 -216.672)" fill="#f0f0f0"/>
    <path id="Path_3967" data-name="Path 3967" d="M311.652,315.358,323.611,322v-1.879l-8.577-4.765Z" transform="translate(-293.611 -216.672)" fill="#d80027"/>
    <g id="Group_4338" data-name="Group 4338" transform="translate(0 98.686)">
      <path id="Path_3968" data-name="Path 3968" d="M5.392,315.356l-5.392,3v-3Z" transform="translate(0 -315.356)" fill="#0052b4"/>
      <path id="Path_3969" data-name="Path 3969" d="M35.928,329.51v5.8H25.491Z" transform="translate(-23.969 -328.665)" fill="#0052b4"/>
    </g>
    <path id="Path_3970" data-name="Path 3970" d="M8.577,315.358,0,320.123V322H0l11.959-6.644Z" transform="translate(0 -216.672)" fill="#d80027"/>
    <g id="Group_4339" data-name="Group 4339" transform="translate(0 85.33)">
      <path id="Path_3971" data-name="Path 3971" d="M7.056,134.878,0,130.958v3.92Z" transform="translate(0 -128.234)" fill="#0052b4"/>
      <path id="Path_3972" data-name="Path 3972" d="M11.959,91.974,0,85.33v1.879l8.577,4.765Z" transform="translate(0 -85.33)" fill="#0052b4"/>
      <path id="Path_3973" data-name="Path 3973" d="M53.366,85.33,62.139,90.2V85.33Z" transform="translate(-50.181 -85.33)" fill="#0052b4"/>
    </g>
    <path id="Path_3974" data-name="Path 3974" d="M11.959,91.974,0,85.33v1.879l8.577,4.765Z" fill="#f0f0f0"/>
    <path id="Path_3975" data-name="Path 3975" d="M11.959,91.974,0,85.33v1.879l8.577,4.765Z" fill="#d80027"/>
    <g id="Group_4340" data-name="Group 4340" transform="translate(18.041 85.33)">
      <path id="Path_3976" data-name="Path 3976" d="M421.659,149.442l5.392-3v3Z" transform="translate(-415.093 -142.798)" fill="#0052b4"/>
      <path id="Path_3977" data-name="Path 3977" d="M311.652,91.13v-5.8h10.437Z" transform="translate(-311.652 -85.331)" fill="#0052b4"/>
    </g>
    <path id="Path_3978" data-name="Path 3978" d="M315.034,91.974l8.577-4.765V85.33h0l-11.959,6.644Z" transform="translate(-293.611)" fill="#d80027"/>
  </g>
</svg>
