<svg xmlns="http://www.w3.org/2000/svg" width="43" height="43" viewBox="0 0 43 43" fill="currentColor"><g data-name="404"><g data-name="Group 4401"><g data-name="Group 4400"><path data-name="Path 4079" d="M38.728 8.635a1.75 1.75 0 10-2.8 2.1 18 18 0 11-3.595-3.61 1.75 1.75 0 102.107-2.793 21.5 21.5 0 104.289 4.307z"/></g></g><g data-name="Group 4403"><g data-name="Group 4402"><path data-name="Path 4080" d="M30.846 28.37l-6.87-6.87 6.87-6.87a1.75 1.75 0 00-2.474-2.474l-6.87 6.87-6.87-6.87a1.75 1.75 0 10-2.474 2.474l6.87 6.87-6.87 6.87a1.75 1.75 0 002.474 2.474l6.87-6.87 6.87 6.87a1.75 1.75 0 102.474-2.474z"/></g></g></g></svg>