<svg id="hierarchical-structure" xmlns="http://www.w3.org/2000/svg" width="20" height="20" viewBox="0 0 20 20">
  <g id="Group_4283" data-name="Group 4283">
    <path id="Path_3941" data-name="Path 3941" d="M19.286,14.286H17.857V11.429a.714.714,0,0,0-.714-.714H10.714v-5h3.571A.714.714,0,0,0,15,5V.714A.714.714,0,0,0,14.286,0H5.714A.714.714,0,0,0,5,.714V5a.714.714,0,0,0,.714.714H9.286v5H2.857a.714.714,0,0,0-.714.714v2.857H.714A.714.714,0,0,0,0,15v4.286A.714.714,0,0,0,.714,20H5a.714.714,0,0,0,.714-.714V15A.714.714,0,0,0,5,14.286H3.571V12.143H9.286v2.143H7.857A.714.714,0,0,0,7.143,15v4.286A.714.714,0,0,0,7.857,20h4.286a.714.714,0,0,0,.714-.714V15a.714.714,0,0,0-.714-.714H10.714V12.143h5.714v2.143H15a.714.714,0,0,0-.714.714v4.286A.714.714,0,0,0,15,20h4.286A.714.714,0,0,0,20,19.286V15A.714.714,0,0,0,19.286,14.286Z" fill="#68747d"/>
  </g>
</svg>
