<svg xmlns="http://www.w3.org/2000/svg" width="238.108" height="200" viewBox="0 0 238.108 200">
  <path id="Union_8" data-name="Union 8" d="M1505.864-14057.342a5.376,5.376,0,0,1,2.941-7.011c38.252-15.659,75.962-7.333,91.551-2.563V-14231a39.409,39.409,0,0,0-5.829,4.776,5.38,5.38,0,0,1-5.028,1.464v140.551a5.373,5.373,0,0,1-1.885,4.087,5.382,5.382,0,0,1-4.333,1.225,186.429,186.429,0,0,0-26.076-1.7c-17.173,0-42,2.174-62.748,12.546a5.379,5.379,0,0,1-2.4.566,5.379,5.379,0,0,1-2.4-.566c-20.747-10.372-45.575-12.546-62.748-12.546a185.048,185.048,0,0,0-26.073,1.7,5.387,5.387,0,0,1-4.336-1.221,5.381,5.381,0,0,1-1.885-4.091v-140.556a5.378,5.378,0,0,1-5.025-1.456,40.908,40.908,0,0,0-5.829-4.783v164.09c15.586-4.77,53.292-13.1,91.544,2.563a5.376,5.376,0,0,1,2.941,7.011,5.38,5.38,0,0,1-4.979,3.34,5.375,5.375,0,0,1-2.035-.4c-44.749-18.312-90.362-.182-90.817,0a5.385,5.385,0,0,1-5.028-.518,5.379,5.379,0,0,1-2.378-4.462v-179.532a5.392,5.392,0,0,1,1.672-3.9,5.377,5.377,0,0,1,3.979-1.469c6.078.313,12.394,4.96,15.956,8.055v-11.583a5.378,5.378,0,0,1,4.819-5.347,153,153,0,0,1,15.753-.847h.01c45.857.006,67.976,22.379,76.862,35.145,8.885-12.767,31-35.145,76.863-35.145a153.155,153.155,0,0,1,15.764.847,5.378,5.378,0,0,1,4.819,5.347v11.579c3.563-3.093,9.878-7.739,15.956-8.051a5.372,5.372,0,0,1,3.979,1.469,5.382,5.382,0,0,1,1.675,3.9v179.532a5.388,5.388,0,0,1-2.378,4.462,5.393,5.393,0,0,1-5.032.518c-.454-.186-46.071-18.316-90.82,0a5.375,5.375,0,0,1-2.035.4A5.38,5.38,0,0,1,1505.864-14057.342ZM1497.429-14207v125.839c20.733-8.322,43.508-10.189,59.775-10.189a214.751,214.751,0,0,1,21.541,1.063v-152.6c-3.35-.24-6.641-.363-9.83-.363C1517.785-14243.249,1500.307-14212.833,1497.429-14207Zm-10.753,125.839V-14207c-2.853-5.782-20.313-36.24-71.486-36.248-3.2,0-6.48.123-9.83.363v152.6a214.754,214.754,0,0,1,21.541-1.062C1443.165-14091.352,1465.944-14089.484,1486.676-14081.162Z" transform="translate(-1373 14254.002)" fill="rgba(104,116,125,0.3)"/>
</svg>
