<svg id="N6_logotyp_RGB_color_Portal" xmlns="http://www.w3.org/2000/svg" width="231.287" height="60" viewBox="0 0 231.287 60">
  <path id="Path_4104" data-name="Path 4104" d="M85.01,85.115V71.352a9.247,9.247,0,0,0-9.247-9.2H62V85.118h4.934l-.018-18.094h8.853A4.364,4.364,0,0,1,80.1,71.352V85.115Z" transform="translate(-43.506 -43.612)"/>
  <path id="Path_4105" data-name="Path 4105" d="M0,29.169A.841.841,0,0,0,.835,30H4.773a.838.838,0,0,0,.838-.835V6.446a.838.838,0,0,1,.838-.835H29.163A.841.841,0,0,0,30,4.776V.838A.838.838,0,0,0,29.166,0H3.642A2.33,2.33,0,0,0,2.213.6L.6,2.213A2.33,2.33,0,0,0,0,3.642Z" transform="translate(0 0)" fill="#9c00f5"/>
  <path id="Path_4106" data-name="Path 4106" d="M130.582,101.415a.838.838,0,0,0-.835-.835h-3.937a.838.838,0,0,0-.838.835v22.72a.835.835,0,0,1-.835.835h-22.72a.835.835,0,0,0-.835.835v3.937a.838.838,0,0,0,.835.835h25.539a2.318,2.318,0,0,0,1.429-.6l1.623-1.623a2.315,2.315,0,0,0,.6-1.426Z" transform="translate(-70.579 -70.579)" fill="#9c00f5"/>
  <path id="Path_4107" data-name="Path 4107" d="M164.517,8.949l-.919-.943a1.289,1.289,0,0,0-.8-.337H152.52l.03-4.051a.459.459,0,0,1,.462-.468h10.121a.474.474,0,0,0,.465-.465V.468A.474.474,0,0,0,163.133,0H151.416a1.289,1.289,0,0,0-.8.337l-.895.928a1.289,1.289,0,0,0-.322.8V17.08a1.306,1.306,0,0,0,.331.8l.895.91a1.318,1.318,0,0,0,.8.334h11.215a1.321,1.321,0,0,0,.8-.331l1.047-.895a1.336,1.336,0,0,0,.343-.8V9.739A1.3,1.3,0,0,0,164.517,8.949Zm-3.281,7.04h-8.245a.468.468,0,0,1-.471-.477V10.819h8.692a.462.462,0,0,1,.462.468l.057,4.224a.48.48,0,0,1-.48.462Z" transform="translate(-104.836)"/>
  <path id="Path_4108" data-name="Path 4108" d="M411.165,93.753V88.384a5.318,5.318,0,0,0-1.506-3.8A4.8,4.8,0,0,0,406.053,83h-5.1a4.793,4.793,0,0,0-3.609,1.587,5.318,5.318,0,0,0-1.491,3.794V93.75a5.313,5.313,0,0,0,1.491,3.794,4.793,4.793,0,0,0,3.609,1.59h5.11a4.8,4.8,0,0,0,3.606-1.587,5.312,5.312,0,0,0,1.506-3.794m5.113,0a10.64,10.64,0,0,1-3.016,7.588,9.6,9.6,0,0,1-7.21,3.174h-5.11a9.592,9.592,0,0,1-7.207-3.174,10.625,10.625,0,0,1-3.016-7.588V88.384a10.616,10.616,0,0,1,3.016-7.588,9.57,9.57,0,0,1,7.207-3.186h5.11a9.6,9.6,0,0,1,7.21,3.177,10.628,10.628,0,0,1,3.016,7.588Z" transform="translate(-274.178 -54.46)"/>
  <path id="Path_4109" data-name="Path 4109" d="M312.641,33.927a2.327,2.327,0,0,0-1.429-.6h-20a2.33,2.33,0,0,0-1.429.6l-1.614,1.623a2.329,2.329,0,0,0-.6,1.429V72.605a.835.835,0,0,0,.835.835h3.919a.835.835,0,0,0,.835-.835V39.794a.838.838,0,0,1,.841-.838h14.723a.859.859,0,0,1,.859.838l-.1,7.517a.826.826,0,0,1-.823.835H297a.841.841,0,0,0-.835.838v3.934a.841.841,0,0,0,.835.838h14.506a2.3,2.3,0,0,0,1.423-.6l1.614-1.658a2.309,2.309,0,0,0,.6-1.435V36.942a2.359,2.359,0,0,0-.6-1.426Z" transform="translate(-201.792 -23.388)"/>
  <path id="Path_4110" data-name="Path 4110" d="M584.848,87.618V82.747h-.835a4.352,4.352,0,0,1-3.281-1.438,4.791,4.791,0,0,1-1.369-3.43V68.8H584V63.931h-4.632V53.53H574.73v10.4h-3.86V68.8h3.86v9.08a9.593,9.593,0,0,0,2.735,6.861,8.72,8.72,0,0,0,6.547,2.875Z" transform="translate(-400.588 -37.563)"/>
  <path id="Path_4111" data-name="Path 4111" d="M500.993,92.607h9.694V87.459h-9.694a9.426,9.426,0,0,0-6.837,2.846,9.306,9.306,0,0,0-2.858,6.813v14.318h5.151V96.9a4.588,4.588,0,0,1,4.54-4.3" transform="translate(-344.751 -61.371)"/>
  <path id="Path_4112" data-name="Path 4112" d="M653.536,105.876h-9.292a4.579,4.579,0,0,1-4.546-4.543V96.584a4.579,4.579,0,0,1,4.546-4.543h9.292Zm-9.292,5.151h9.292l7.574-.075V105.9H658.7V86.89H644.244a9.757,9.757,0,0,0-9.694,9.694v4.749a9.763,9.763,0,0,0,9.694,9.694" transform="translate(-445.273 -60.972)"/>
  <path id="Path_4113" data-name="Path 4113" d="M748.059,82.747V71.812l.024.006V53.53h-7.955V58.4H742.7v9.184l-.024-.018V82.747H740.05v4.871h10.541V82.747Z" transform="translate(-519.304 -37.563)"/>
</svg>
