<svg data-testid="noAccessIcon" xmlns="http://www.w3.org/2000/svg" width="352.678" height="253.484" viewBox="0 0 352.678 253.484">
  <g id="barrier" transform="translate(0.002 -72.001)">
    <g id="Group_4392" data-name="Group 4392" transform="translate(-0.002 72.001)">
      <path id="Path_4055" data-name="Path 4055" d="M335.108,238.414a9.78,9.78,0,0,0,11.73-7.211l5.571-23.333a9.71,9.71,0,0,0-7.273-11.7l-32.758-7.636V167.6l32.473-8.087a9.708,9.708,0,0,0,7.095-11.808l-5.93-23.246a9.788,9.788,0,0,0-11.838-7.034l-21.8,5.429V100.814A15.494,15.494,0,0,0,304.456,72H290.68a15.494,15.494,0,0,0-7.922,28.813v29.422l-47.793,11.9a5.166,5.166,0,1,0,2.5,10.026l18.613-4.635,27.937,16.492-37.127,9.246L198.25,161.93l19.159-4.771a5.166,5.166,0,0,0-2.5-10.026l-38.746,9.65L69.916,132.014v-31.2A15.494,15.494,0,0,0,61.994,72H48.218A15.494,15.494,0,0,0,40.3,100.814v24.295h0l-22.728-5.3a9.787,9.787,0,0,0-11.729,7.211L.266,150.354a9.6,9.6,0,0,0,1.182,7.328,9.7,9.7,0,0,0,6.091,4.37L40.3,169.688v20.93L7.823,198.706a9.693,9.693,0,0,0-6.023,4.46,9.606,9.606,0,0,0-1.071,7.348l5.93,23.246A9.782,9.782,0,0,0,18.5,240.793l21.8-5.429v59.124H17.376A12.223,12.223,0,0,0,5.167,306.7v6.58a12.223,12.223,0,0,0,12.209,12.209H92.837a12.223,12.223,0,0,0,12.209-12.209V306.7a12.223,12.223,0,0,0-12.209-12.209H69.916v-66.5l40.839-10.17a5.166,5.166,0,0,0-2.5-10.026l-11.387,2.836L68.934,194.135l36.856-9.179,48.634,11.337-26.113,6.5a5.166,5.166,0,0,0,2.5,10.026l45.7-11.381L282.76,226.209v68.277H259.839A12.223,12.223,0,0,0,247.63,306.7v6.58a12.223,12.223,0,0,0,12.209,12.209H335.3a12.223,12.223,0,0,0,12.209-12.209V306.7A12.223,12.223,0,0,0,335.3,294.487H312.378V233.113Zm1.042-110.826,5.624,22.049-13.725,3.418-27.937-16.492Zm-43.058.076V103h8.955v22.434Zm-2.411-45.329h13.776a5.165,5.165,0,0,1,1.461,10.119c-.028.007-.055.01-.082.018a5.611,5.611,0,0,1-.676.143l-.041.006a4.8,4.8,0,0,1-.663.048H290.681a4.8,4.8,0,0,1-.663-.048l-.041-.006a5.608,5.608,0,0,1-.676-.143c-.028-.008-.055-.01-.082-.018a5.165,5.165,0,0,1,1.461-10.119ZM270.369,143.97l15.448-3.847,27.937,16.492-15.448,3.847Zm31.678,26.208v15.948l-8.955-2.087V172.408Zm-19.287,4.8v6.649l-13.791-3.215ZM48.219,82.334H62a5.165,5.165,0,0,1,1.462,10.119c-.028.007-.055.01-.083.018a5.611,5.611,0,0,1-.676.143l-.041.006a4.8,4.8,0,0,1-.663.048H48.219a4.8,4.8,0,0,1-.663-.048l-.041-.006a5.611,5.611,0,0,1-.676-.143c-.028-.008-.055-.01-.082-.018a5.165,5.165,0,0,1,1.461-10.119ZM59.584,103v26.606l-8.955-2.087V103ZM10.467,152.128,15.75,130l14.088,3.284,17.112,27.35-.314-.073h0Zm6.059,78.509L10.9,208.589l14-3.486,27.937,16.492Zm43.058-.076v63.928H50.629v-61.7ZM92.837,304.82a1.879,1.879,0,0,1,1.876,1.876v6.58a1.879,1.879,0,0,1-1.876,1.876H17.376a1.878,1.878,0,0,1-1.876-1.876V306.7a1.878,1.878,0,0,1,1.876-1.876ZM82.578,214.186l-15.448,3.847L39.193,201.542,54.641,197.7Zm-31.948-26.14V172.1l8.955,2.087v11.631ZM61.22,163.957l-17.112-27.35.182.043,15.4,3.59L76.8,167.59Zm8.7,19.286v-6.649l13.791,3.215Zm21.157-12.326L73.96,143.566l33.223,7.745,17.112,27.35Zm47.492,11.071-17.112-27.35,15.583,3.633,17.113,27.35Zm29.854,6.959L151.306,161.6l33.223,7.745,17.112,27.35Zm47.492,11.071L198.8,172.668l15.583,3.633,17.113,27.35Zm29.853,6.958-17.113-27.35,17.1,3.986h0l16.123,3.759,17.113,27.35Zm30.38-16.279,15.584,3.633,17.112,27.35-15.583-3.633Zm25.9,40.009v63.782h-8.955V228.62ZM335.3,304.82a1.879,1.879,0,0,1,1.876,1.876v6.58a1.878,1.878,0,0,1-1.876,1.876H259.838a1.878,1.878,0,0,1-1.876-1.876V306.7a1.878,1.878,0,0,1,1.876-1.876ZM306,197.656l36.211,8.442-5.284,22.13-13.816-3.221Z" transform="translate(0.002 -72.001)" fill="rgba(104,116,125,0.3)"/>
    </g>
  </g>
</svg>
