<svg xmlns="http://www.w3.org/2000/svg" width="249.608" height="249.608" viewBox="0 0 249.608 249.608"><g><g><g><path d="M224.807 50.124a10.153 10.153 0 10-16.261 12.161 104.5 104.5 0 11-20.868-20.953 10.155 10.155 0 1012.233-16.211 124.793 124.793 0 1024.9 25z" fill="rgba(104,116,125,0.3)"/></g></g><g><g><path d="M179.048 164.681l-39.878-39.878 39.878-39.878a10.155 10.155 0 00-14.363-14.359l-39.878 39.878-39.874-39.878a10.154 10.154 0 00-14.361 14.359l39.878 39.878-39.878 39.878a10.154 10.154 0 0014.361 14.359l39.878-39.878 39.878 39.878a10.154 10.154 0 0014.362-14.359z" fill="rgba(104,116,125,0.3)"/></g></g></g></svg>