<svg xmlns="http://www.w3.org/2000/svg" width="494.661" height="218.458" viewBox="0 0 494.661 218.458">
  <g id="_404" data-name="404" transform="translate(0 -142.943)">
    <g id="Group_4397" data-name="Group 4397" transform="translate(0 142.943)">
      <g id="Group_4396" data-name="Group 4396">
        <path id="Path_4077" data-name="Path 4077" d="M135.849,268.657h-5.754V246.736c0-11.229-10.234-18.775-25.466-18.775s-25.465,7.546-25.465,18.775v21.922H63.351l24.808-97.3a21.533,21.533,0,0,0,1.146-8.108v-.274c0-15.1-22.188-20.035-29.835-20.035-9.789,0-17.791,4.974-21.954,13.645a7.465,7.465,0,0,0-.465,1.246C0,293.7,0,295.63,0,296.909c0,11.686,8.248,20.169,19.61,20.169H32.82a7.347,7.347,0,0,0,0-14.693H19.61c-3.076,0-4.722-1.637-4.9-4.869,1.888-8.317,22.469-84.3,36.32-135.1a8.915,8.915,0,0,1,8.438-4.786c5.11,0,13.869,3.225,15.142,5.538v.124a18.224,18.224,0,0,1-.128,2.663,7.475,7.475,0,0,0-.415,1.189L46.778,274.188a7.347,7.347,0,0,0,7.119,9.161H86.511A7.347,7.347,0,0,0,93.858,276V246.735c0-2.442,5.571-4.082,10.772-4.082,5.3,0,10.772,1.527,10.772,4.082V276a7.347,7.347,0,0,0,7.347,7.347h13.1c2.176,0,4.083,4.513,4.083,9.658,0,4.843-2.92,8.86-4.234,9.379h-12.95a7.347,7.347,0,0,0-7.347,7.347v32.892c0,1.888-4.707,4.082-10.772,4.082-6.248,0-10.772-2.438-10.772-4.082V309.733a7.347,7.347,0,0,0-7.347-7.347H57.31a7.347,7.347,0,1,0,0,14.693H79.165v25.546c0,10.879,10.711,18.775,25.465,18.775,14.995,0,25.466-7.72,25.466-18.775V317.079h5.754c8.881,0,18.776-9.886,18.776-24.072C154.624,278.9,146.728,268.657,135.849,268.657Z" transform="translate(0 -142.943)" fill="rgba(104,116,125,0.3)"/>
      </g>
    </g>
    <g id="Group_4399" data-name="Group 4399" transform="translate(340.037 142.944)">
      <g id="Group_4398" data-name="Group 4398">
        <path id="Path_4078" data-name="Path 4078" d="M487.805,268.657h-5.754V246.736c0-11.229-10.234-18.775-25.466-18.775s-25.465,7.546-25.465,18.775v21.922H415.307l24.81-97.3a21.553,21.553,0,0,0,1.145-8.109v-.271c0-15.1-22.188-20.035-29.835-20.035-9.789,0-17.791,4.974-21.955,13.645a7.464,7.464,0,0,0-.465,1.246s-4.7,17.248-10.748,39.513a0,0,0,0,1,0,0l-7.612,28.087c-18.69,69.105-18.69,70-18.69,71.473,0,11.686,8.248,20.169,19.611,20.169h59.553v25.546c0,10.879,10.71,18.775,25.465,18.775,14.995,0,25.466-7.72,25.466-18.775V317.08H487.8c8.881,0,18.776-9.886,18.776-24.071C506.581,278.9,498.684,268.657,487.805,268.657Zm-.151,33.729H474.7a7.347,7.347,0,0,0-7.347,7.347v32.892c0,1.888-4.707,4.082-10.772,4.082-6.248,0-10.771-2.438-10.771-4.082V309.733a7.347,7.347,0,0,0-7.347-7.347h-66.9c-3.075,0-4.722-1.637-4.9-4.866.654-2.866,4.059-16.091,18.164-68.242l7.61-28.08c5.318-19.589,9.6-35.293,10.546-38.774a8.915,8.915,0,0,1,8.439-4.786c5.11,0,13.868,3.225,15.142,5.538v.12a18.162,18.162,0,0,1-.129,2.668,7.523,7.523,0,0,0-.414,1.188L398.735,274.19a7.347,7.347,0,0,0,7.12,9.161h32.614A7.347,7.347,0,0,0,445.815,276V246.737c0-2.442,5.571-4.082,10.771-4.082,5.3,0,10.772,1.527,10.772,4.082V276a7.347,7.347,0,0,0,7.347,7.347h13.1c2.176,0,4.083,4.513,4.083,9.658C491.888,297.852,488.967,301.867,487.654,302.386Z" transform="translate(-351.954 -142.944)" fill="rgba(104,116,125,0.3)"/>
      </g>
    </g>
    <g id="Group_4401" data-name="Group 4401" transform="translate(157.039 168.507)">
      <g id="Group_4400" data-name="Group 4400">
        <path id="Path_4079" data-name="Path 4079" d="M325.192,205.668a7.345,7.345,0,1,0-11.765,8.8,75.607,75.607,0,1,1-15.1-15.16,7.347,7.347,0,1,0,8.851-11.729,90.288,90.288,0,1,0,18.012,18.09Z" transform="translate(-162.543 -169.403)" fill="rgba(104,116,125,0.3)"/>
      </g>
    </g>
    <g id="Group_4403" data-name="Group 4403" transform="translate(205.943 217.41)">
      <g id="Group_4402" data-name="Group 4402">
        <path id="Path_4080" data-name="Path 4080" d="M293.8,290.264l-28.852-28.852L293.8,232.56a7.347,7.347,0,0,0-10.392-10.389l-28.852,28.852L225.7,222.172a7.346,7.346,0,0,0-10.39,10.389l28.852,28.852-28.852,28.852A7.347,7.347,0,0,0,225.7,300.653L254.555,271.8l28.852,28.852A7.347,7.347,0,1,0,293.8,290.264Z" transform="translate(-213.16 -220.019)" fill="rgba(104,116,125,0.3)"/>
      </g>
    </g>
  </g>
</svg>
