<svg xmlns="http://www.w3.org/2000/svg" width="225.04" height="225.04"><g fill="rgba(104,116,125,0.3)"><path d="M112.528 0h-.008a112.516 112.516 0 10.008 0zm-.008 211.39a98.87 98.87 0 1198.87-98.87 98.981 98.981 0 01-98.87 98.87z"/><path d="M157.174 61.393a22.3 22.3 0 00-15.952 6.65l-41.345 41.343-12.745-12.745A22.457 22.457 0 1055.374 128.4l28.628 28.624a22.448 22.448 0 0031.766-.008l57.242-57.242.036-.036.036-.037.09-.091a22.457 22.457 0 00-16-38.217zm6.271 28.64l-.089.088-57.249 57.25a8.8 8.8 0 01-12.444.01l-.01-.01-28.628-28.624a8.807 8.807 0 0112.454-12.455l22.4 22.4 51.025-51.023a8.807 8.807 0 0112.543 12.366z"/></g></svg>