<svg id="Component_20_11" data-name="Component 20 – 11" xmlns="http://www.w3.org/2000/svg" width="19.293" height="20" viewBox="0 0 19.293 20">
  <g id="Group_4284" data-name="Group 4284" transform="translate(4.633)">
    <path id="Path_3945" data-name="Path 3945" d="M295.1,417.66a5.242,5.242,0,0,0,5.012-5.44,5.013,5.013,0,1,0-10.025-.166c0,.055,0,.111,0,.166A5.242,5.242,0,0,0,295.1,417.66Z" transform="translate(-290.086 -407.123)" fill="#202e3a"/>
  </g>
  <path id="Path_3946" data-name="Path 3946" d="M296.83,423.667a6.7,6.7,0,0,1-7.621,0c-3.789,1.017-5.836,3.7-5.836,7.824a.742.742,0,0,0,.725.758H301.91a.742.742,0,0,0,.756-.728v-.028C302.666,427.372,300.619,424.684,296.83,423.667Z" transform="translate(-283.373 -412.25)" fill="#202e3a"/>
</svg>
