<?xml version="1.0" standalone="no"?>
<!DOCTYPE svg PUBLIC "-//W3C//DTD SVG 20010904//EN"
 "http://www.w3.org/TR/2001/REC-SVG-20010904/DTD/svg10.dtd">
<svg version="1.0" xmlns="http://www.w3.org/2000/svg"
 width="700.000000pt" height="700.000000pt" viewBox="0 0 700.000000 700.000000"
 preserveAspectRatio="xMidYMid meet">
<metadata>
Created by potrace 1.14, written by Peter Selinger 2001-2017
</metadata>
<g transform="translate(0.000000,700.000000) scale(0.100000,-0.100000)"
fill="#000000" stroke="none">
<path d="M1885 5263 c-44 -22 -124 -102 -146 -145 -18 -36 -19 -68 -19 -811 0
-737 1 -775 18 -790 27 -24 273 -25 296 -1 14 14 16 91 16 705 0 676 0 689 20
709 20 20 33 20 709 20 614 0 691 2 705 16 13 12 16 41 16 148 0 116 -2 135
-18 149 -17 16 -86 17 -793 17 -684 -1 -777 -3 -804 -17z"/>
<path d="M4421 5245 c-21 -19 -44 -48 -50 -63 -8 -20 -11 -158 -9 -484 l3
-457 45 -46 44 -45 362 0 362 0 40 33 c22 17 45 42 51 55 7 14 11 107 11 251
l0 228 -30 41 c-16 23 -38 46 -49 51 -13 7 -134 11 -336 11 l-316 0 3 133 3
132 315 3 c282 2 316 4 328 19 16 22 16 145 0 161 -9 9 -106 12 -375 12 l-363
0 -39 -35z m669 -745 c3 -74 2 -143 -3 -153 -7 -16 -28 -17 -270 -15 l-262 3
-3 153 -3 152 268 -2 268 -3 5 -135z"/>
<path d="M2820 3500 l0 -680 145 0 145 0 0 535 0 535 288 0 c280 0 288 -1 337
-24 63 -29 102 -68 131 -131 l24 -50 0 -432 0 -433 145 0 145 0 0 443 c0 492
-1 504 -66 628 -70 134 -215 243 -361 274 -53 11 -164 15 -500 15 l-433 0 0
-680z"/>
<path d="M4966 3484 c-14 -14 -16 -91 -16 -705 0 -676 0 -689 -20 -709 -20
-20 -33 -20 -715 -20 -676 0 -695 -1 -705 -19 -5 -11 -10 -78 -10 -149 0 -112
2 -131 18 -145 17 -16 86 -17 790 -17 492 0 780 4 797 10 37 14 140 115 159
155 14 29 16 123 16 807 0 738 -1 776 -18 791 -27 24 -273 25 -296 1z"/>
</g>
</svg>
